<?xml version="1.0" encoding="utf-8"?>
<!-- Generator: Adobe Illustrator 21.0.2, SVG Export Plug-In . SVG Version: 6.00 Build 0)  -->
<svg version="1.1" id="Calque_1" xmlns="http://www.w3.org/2000/svg" xmlns:xlink="http://www.w3.org/1999/xlink" x="0px" y="0px"
	 viewBox="0 0 1351.8 688" style="enable-background:new 0 0 1351.8 688;" xml:space="preserve">
<style type="text/css">
	.st0{display:none;}
	.st1{display:inline;}
	.st2{fill:none;stroke:#FFFFFF;stroke-miterlimit:10;}
	.st3{fill:none;stroke:#FFFFFF;stroke-linecap:round;stroke-miterlimit:10;}
	.st4{fill:none;stroke:#FFFFFF;stroke-linecap:round;stroke-miterlimit:10;stroke-dasharray:11.1452,11.1452;}
	.st5{fill:none;stroke:#FFFFFF;stroke-linecap:round;stroke-miterlimit:10;stroke-dasharray:9.5333,9.5333;}
	.st6{fill:none;stroke:#FFFFFF;stroke-linejoin:bevel;stroke-miterlimit:10;}
	.st7{fill:#FFFFFF;}
</style>
<g id="FOND" class="st0">
	<g id="ZSupD7.tif" class="st1">
		
			<image style="overflow:visible;enable-background:new    ;" width="1593" height="688" id="Layer_0" xlink:href="48D77685882276CB.png"  transform="matrix(1 0 0 1 -169.4172 0)">
		</image>
	</g>
</g>
<g>
	
		<rect x="693.8" y="-18.1" transform="matrix(0.7071 -0.7071 0.7071 0.7071 177.6748 537.5857)" class="st2" width="88" height="144.8"/>
	
		<rect x="776.2" y="102.5" transform="matrix(0.7071 -0.7071 0.7071 0.7071 153.4817 596.1038)" class="st2" width="40.3" height="20.6"/>
	<path class="st2" d="M623.4,194c23.3-23.3,31,19.4,58.9-8.6c8.1-8.1,62.2-62.2,62.2-62.2L669,47.7l-32,32l-54.1,54.1l-32,32
		l50.3,50.3C601.3,216.1,611.1,206.3,623.4,194z"/>
	<line class="st2" x1="809.7" y1="76.8" x2="714.9" y2="-18.1"/>
	<g>
		<line class="st3" x1="734.2" y1="123.4" x2="730.7" y2="127"/>
		<line class="st4" x1="722.8" y1="134.9" x2="679.5" y2="178.2"/>
		<line class="st3" x1="675.5" y1="182.1" x2="672" y2="185.7"/>
	</g>
	<g>
		<line class="st3" x1="668.2" y1="57.4" x2="664.7" y2="61"/>
		<line class="st5" x1="658" y1="67.7" x2="566.9" y2="158.7"/>
		<line class="st3" x1="563.6" y1="162.1" x2="560" y2="165.6"/>
	</g>
	<line class="st2" x1="808.7" y1="108.3" x2="800.3" y2="99.9"/>
</g>
<g>
	
		<rect x="346.5" y="583.3" transform="matrix(0.9641 -0.2654 0.2654 0.9641 -154.0839 143.6742)" class="st2" width="216.2" height="117.4"/>
	<polygon class="st2" points="489,571.6 411.6,592.9 419.4,559.7 465.2,547.1 	"/>
	
		<rect x="510.4" y="552.9" transform="matrix(0.9641 -0.2654 0.2654 0.9641 -129.3107 158.4062)" class="st2" width="22.2" height="9.6"/>
	
		<rect x="374.1" y="586.2" transform="matrix(0.9641 -0.2654 0.2654 0.9641 -143.2865 124.5801)" class="st2" width="30.5" height="12.6"/>
	
		<rect x="494.7" y="565.1" transform="matrix(0.9641 -0.2654 0.2654 0.9641 -132.3863 153.4442)" class="st2" width="13.8" height="3"/>
	<line class="st2" x1="349" y1="636.4" x2="343.6" y2="616.6"/>
	<line class="st2" x1="369" y1="709" x2="354.3" y2="655.7"/>
	<line class="st2" x1="418.7" y1="587.2" x2="425.4" y2="561.8"/>
	<line class="st2" x1="342.9" y1="643.5" x2="419.7" y2="622.4"/>
	<line class="st2" x1="497.1" y1="601.1" x2="551.3" y2="586.1"/>
	<line class="st2" x1="504" y1="607.9" x2="553.6" y2="594.2"/>
	<ellipse transform="matrix(0.9641 -0.2654 0.2654 0.9641 -155.6902 161.1872)" class="st2" cx="518.6" cy="656.7" rx="6" ry="6"/>
	<line class="st2" x1="424.1" y1="672.1" x2="428.4" y2="687.7"/>
	<polyline class="st2" points="415.6,664.3 407,644 396,647.1 401.4,666.5 	"/>
	
		<ellipse transform="matrix(0.9641 -0.2654 0.2654 0.9641 -165.133 133.3037)" class="st2" cx="410.7" cy="677.7" rx="14.4" ry="14.4"/>
	<line class="st2" x1="345.1" y1="651.6" x2="417.3" y2="631.7"/>
	<line class="st2" x1="491.1" y1="681" x2="571.4" y2="658.9"/>
	
		<ellipse transform="matrix(0.9641 -0.2654 0.2654 0.9641 -152.8599 146.5344)" class="st2" cx="465.8" cy="638.9" rx="49.1" ry="49.1"/>
	
		<ellipse transform="matrix(0.9641 -0.2654 0.2654 0.9641 -152.8599 146.5344)" class="st2" cx="465.8" cy="638.9" rx="40.1" ry="40.1"/>
	<path class="st2" d="M498.4,644c0.7-4.5,0.5-9.2-0.8-13.8"/>
	<path class="st2" d="M474.6,670.6c5.4-1.5,10.2-4.3,14-7.9c2.5-2.4,4.7-5.2,6.3-8.3"/>
	<path class="st2" d="M457.1,607.1c-2.1,0.6-4.1,1.3-5.9,2.3c-13.9,6.9-21.4,22.8-17.1,38.2c2.9,10.6,10.7,18.5,20.2,22.1"/>
	
		<rect x="344.8" y="599.7" transform="matrix(0.9641 -0.2654 0.2654 0.9641 -147.3462 116.7392)" class="st2" width="27" height="7.8"/>
	
		<rect x="347" y="596.9" transform="matrix(0.9641 -0.2654 0.2654 0.9641 -146.0161 116.1817)" class="st2" width="19.8" height="3"/>
	
		<rect x="352.3" y="595.2" transform="matrix(0.9641 -0.2654 0.2654 0.9641 -145.4314 115.9124)" class="st2" width="7.8" height="1.8"/>
</g>
<g>
	<path class="st6" d="M1240.8,639.5c-4.7-9,2.1,3.9-1.8-3.3c-3.7-7.2-11.9-5.3-12.8-7c-1.9-3.6,7.6-12.6-3.1-32.8
		c-10.5-20.3-40.3-28.1-55.1-56.5c14.8,28.4,4.3,57.2,14.9,77.5c10.5,20.3,23.3,17.6,25.2,21.2c1,1.8-5.4,7.3-1.5,14.6
		c3.7,7.2-3-5.7,1.8,3.3"/>
	
		<ellipse transform="matrix(0.8867 -0.4624 0.4624 0.8867 -140.1879 621.4301)" class="st2" cx="1197.7" cy="596.7" rx="4.1" ry="4.1"/>
	<line class="st2" x1="1168.1" y1="539.8" x2="1195.8" y2="593"/>
	<polyline class="st2" points="1241.1,726.3 1205.4,657.8 1243.8,637.6 1269.9,687.6 	"/>
	<line class="st2" x1="1215.3" y1="660.5" x2="1237.8" y2="703.9"/>
</g>
<g>
	<path class="st2" d="M1329.7,204.7c16.2,26.9,7.7,61.3-22.4,83.5c-45.8,33.9-113.6,12-126.4-53.1c-11.3-57.4,51.2-137.5-18.2-172.8
		c-49.2-23.8-74.5,52.4-17.5,62.7"/>
	
		<ellipse transform="matrix(0.8406 -0.5417 0.5417 0.8406 157.1618 726.9902)" class="st2" cx="1313.7" cy="96.5" rx="106.3" ry="106.3"/>
	<g>
		<path class="st2" d="M1394.4,44.4c-28.8-44.6-88.3-57.5-132.9-28.7c-44.6,28.8-57.5,88.3-28.7,132.9s88.3,57.5,132.9,28.7
			C1410.3,148.5,1423.1,89,1394.4,44.4z M1279.3,20.1c14.2-1.2,26.7,9.5,27.8,23.6c1.2,14.2-9.5,26.7-23.6,27.8
			c-14.2,1.2-26.7-9.5-27.8-23.6S1265,21.3,1279.3,20.1z M1229.8,116.8c-8.3-11.6-5.5-27.7,6.1-36c11.6-8.3,27.7-5.5,36,6.1
			s5.5,27.7-6.1,36C1254.2,131.2,1238.1,128.4,1229.8,116.8z M1292,177c-13.4,4.7-28.2-2.3-32.9-15.7c-4.7-13.4,2.3-28.2,15.7-32.9
			c13.4-4.7,28.2,2.3,32.9,15.7C1312.4,157.6,1305.4,172.3,1292,177z M1328.2,21.5c11.6-8.3,27.7-5.5,36,6.1s5.5,27.7-6.1,36
			s-27.7,5.5-36-6.1C1313.8,45.8,1316.5,29.8,1328.2,21.5z M1370.7,149.8c-2.2,14.1-15.4,23.8-29.5,21.6s-23.8-15.4-21.6-29.5
			c2.1-14.1,15.4-23.8,29.5-21.6C1363.1,122.5,1372.8,135.8,1370.7,149.8z M1384.2,117.7c-13.4,4.7-28.2-2.3-32.9-15.7
			s2.3-28.2,15.7-32.9s28.2,2.3,32.9,15.7C1404.6,98.1,1397.6,112.9,1384.2,117.7z"/>
	</g>
	<ellipse transform="matrix(0.8406 -0.5417 0.5417 0.8406 157.1618 726.9902)" class="st2" cx="1313.7" cy="96.5" rx="12" ry="12"/>
</g>
<g>
	<g>
		<line class="st2" x1="-5.4" y1="713" x2="59.7" y2="530.3"/>
		
			<rect x="-72.8" y="613.7" transform="matrix(0.335 -0.9422 0.9422 0.335 -567.5099 448.2357)" class="st2" width="213.2" height="25"/>
		<polyline class="st2" points="81.5,529.7 79.1,499.4 57.9,521.3 		"/>
		<line class="st2" x1="60.2" y1="528.5" x2="61" y2="526.6"/>
	</g>
	<g>
		<line class="st2" x1="36.9" y1="772.9" x2="114.5" y2="535.9"/>
		<polygon class="st2" points="136.7,540.3 111.5,531.3 32.4,774.9 44.1,779.2 		"/>
		<polyline class="st2" points="136.7,540.3 141.1,528.1 115.7,519.1 111.5,531.3 		"/>
		<polyline class="st2" points="141,528.2 151.2,499.5 125.9,490.5 115.7,519.2 		"/>
		<path class="st2" d="M148.1,508.2c-0.5,1-1.1,1.8-1.7,2.2c-0.4,0.3-1,0.5-1.5,0.4c-0.6-0.1-1.3-0.4-1.9-0.4
			c-1.3,0-2.2,1.3-3.4,1.8c-1.6,0.7-3.7-0.1-4.4-1.7c-0.4-1.1-0.3-2.2-0.3-3.4s-0.4-2.5-1.5-3c-1-0.4-1.9,0-2.9,0.2
			c-4.4,1-9.1-0.3-7.7-5"/>
		<line class="st2" x1="117.7" y1="526" x2="118.4" y2="524.1"/>
		<line class="st2" x1="116.6" y1="529.2" x2="117.3" y2="527.4"/>
	</g>
	<g>
		<polygon class="st2" points="175.2,587.2 159.9,581.8 95.5,773.7 104.1,776.8 		"/>
		<polyline class="st2" points="174.8,588 177.8,579.6 162.7,574.2 159.7,582.7 		"/>
		<path class="st2" d="M178.2,579.8c10.2,2.1,14.5-12.5,15-20.3c0.7-11.5-5.6-45.7-9.2-33.6s-16.6,16-24.1,27.6
			c-4.5,6.9-3.9,15.7,2.1,20.6"/>
		<path class="st2" d="M170.4,542.7c-3.1,3.2-6.5,9.3-1.1,11.9c4.6,2.2,8.2-6.8,12.1-6c4.5,0.9,6.8,19.1,11.9,6.9"/>
		<line class="st2" x1="99.3" y1="772.1" x2="162.4" y2="586.5"/>
		<line class="st2" x1="165.1" y1="578.4" x2="164.5" y2="580.3"/>
	</g>
	<g>
		<line class="st2" x1="155.4" y1="755" x2="213.3" y2="592.1"/>
		
			<rect x="97.7" y="665.5" transform="matrix(0.335 -0.9422 0.9422 0.335 -510.4699 627.7585)" class="st2" width="183.5" height="20"/>
		
			<rect x="216.4" y="573.4" transform="matrix(0.335 -0.9422 0.9422 0.335 -401.9972 597.3115)" class="st2" width="11.6" height="20"/>
		
			<rect x="220.3" y="568.7" transform="matrix(0.335 -0.9422 0.9422 0.335 -389.0352 593.7589)" class="st2" width="11.6" height="7.6"/>
		<path class="st2" d="M229.2,594.1c3.9,1.4,9.8,3.5,5,16.8c-7.4,20.7-20.8,46-29.2,69.8c-3.3,9.3-2.3,19-2.3,19"/>
		<line class="st2" x1="217.2" y1="581" x2="218" y2="579.1"/>
		<line class="st2" x1="216.2" y1="584.2" x2="216.8" y2="582.3"/>
	</g>
	<g>
		
			<rect x="-113.7" y="587.8" transform="matrix(0.335 -0.9422 0.9422 0.335 -584.9877 382.5291)" class="st2" width="184.5" height="35.8"/>
		<line class="st2" x1="-9.9" y1="519.5" x2="-1.5" y2="522.5"/>
		<line class="st2" x1="-12.9" y1="527.9" x2="0.1" y2="532.6"/>
		<line class="st2" x1="-15.8" y1="536.4" x2="-7.4" y2="539.4"/>
		<line class="st2" x1="-18.8" y1="544.8" x2="-10.4" y2="547.8"/>
		<line class="st2" x1="-21.9" y1="553.3" x2="-8.9" y2="557.8"/>
		<line class="st2" x1="-24.9" y1="561.7" x2="-16.4" y2="564.7"/>
		<line class="st2" x1="-27.9" y1="570.1" x2="-19.5" y2="573.2"/>
		<line class="st2" x1="-30.9" y1="578.6" x2="-17.9" y2="583.2"/>
		<line class="st2" x1="-33.8" y1="587" x2="-25.4" y2="590"/>
		<line class="st2" x1="-36.8" y1="595.4" x2="-28.4" y2="598.4"/>
		<line class="st2" x1="-39.8" y1="603.9" x2="-26.9" y2="608.5"/>
		<line class="st2" x1="-42.9" y1="612.3" x2="-34.4" y2="615.4"/>
		<line class="st2" x1="-45.9" y1="620.8" x2="-37.5" y2="623.8"/>
		<line class="st2" x1="-48.9" y1="629.2" x2="-35.9" y2="633.8"/>
		<line class="st2" x1="-51.8" y1="637.6" x2="-43.4" y2="640.6"/>
		<line class="st2" x1="-54.8" y1="646" x2="-46.4" y2="649"/>
		<line class="st2" x1="-57.8" y1="654.6" x2="-44.9" y2="659.1"/>
		<line class="st2" x1="-60.9" y1="663" x2="-52.4" y2="666"/>
	</g>
	<g>
		<path class="st2" d="M269.5,677.4c1.5-4.3,3.1-9.2,2.8-11.3c-0.5-4-21-16.3-25.7-14.2c-2.8,1.3-5.6,8.6-7.6,14.5"/>
	</g>
	<path class="st2" d="M243.3,655.6c4.6-0.9,23.9,3.8,28.7,13.3"/>
	<line class="st2" x1="73.6" y1="504.9" x2="79.4" y2="506.9"/>
</g>
<g>
	<line class="st2" x1="669" y1="587.3" x2="666.1" y2="579.1"/>
	<path class="st2" d="M689.5,572.3c-0.5-1.4-2.1-2.2-3.6-1.7s-2.3,2.1-1.8,3.5s2.1,2.2,3.6,1.7S690,573.7,689.5,572.3z"/>
	<path class="st2" d="M665.1,592.7l-6-16.8c-0.9-2.6,0.5-5.2,3.2-5.7l7.2-1.4c2.7-0.5,6.9-1.9,9.4-3.1l7.3-3.4
		c2.5-1.2,5.3,0,6.2,2.6l6,16.8"/>
	<polygon class="st2" points="799.6,772.6 706.4,803.3 641.2,619.6 734.4,588.9 	"/>
	<line class="st2" x1="708.2" y1="788" x2="652.1" y2="630.1"/>
	<line class="st2" x1="754.7" y1="665.1" x2="742.7" y2="631.2"/>
	<line class="st2" x1="739.7" y1="622.7" x2="741.2" y2="627"/>
	<line class="st2" x1="649.7" y1="623.2" x2="651.2" y2="627.4"/>
	<line class="st2" x1="664.7" y1="575" x2="665.3" y2="576.7"/>
	<path class="st2" d="M730.7,590.1c-2.9-8.1-15.2-13.2-33.4-7.2c-18,5.9-13.5,4.4-30.7,10.1c-17.7,5.8-25.3,15.5-21.8,25.4"/>
	<line class="st2" x1="705.7" y1="568.8" x2="726.5" y2="568.3"/>
	<line class="st2" x1="704.2" y1="561.6" x2="722.8" y2="552.7"/>
	<line class="st2" x1="699.7" y1="555.7" x2="712.7" y2="540"/>
	<line class="st2" x1="693.1" y1="552.2" x2="697.9" y2="532.7"/>
	<line class="st2" x1="685.5" y1="551.7" x2="681.3" y2="532"/>
</g>
<g>
	<path class="st2" d="M1284,539.9l7.2-33.3c0.6-2.7-1.1-5.4-3.8-5.9l-52.5-11.3"/>
	<path class="st2" d="M1364.1,557.1l7.2-33.3c0.6-2.7-1.1-5.4-3.8-5.9l-70.3-15.1c-2.7-0.6-5.4,1.1-5.9,3.8l-5.2,24.4"/>
	<path class="st2" d="M1252.2,493.1l7.2-33.3c0.6-2.7-1.1-5.4-3.8-5.9l-52.2-11.2"/>
	<path class="st2" d="M1339.4,477c0.6-2.7-1.1-5.4-3.8-5.9l-70.3-15.1c-2.7-0.6-5.4,1.1-5.9,3.8l-6.1,28.4c-0.6,2.7,1.1,5.4,3.8,5.9
		l70.3,15.1c2.7,0.6,5.4-1.1,5.9-3.8L1339.4,477z"/>
	<path class="st2" d="M1419.5,494.2c0.6-2.7-1.1-5.4-3.8-5.9l-70.3-15.1c-2.7-0.6-5.4,1.1-5.9,3.8l-6.1,28.4
		c-0.6,2.7,1.1,5.4,3.8,5.9l70.3,15.1c2.7,0.6,5.4-1.1,5.9-3.8L1419.5,494.2z"/>
	<path class="st2" d="M1220.5,446l75.2,16.2c2.7,0.6,5.4-1.1,5.9-3.8l6.1-28.4c0.6-2.7-1.1-5.4-3.8-5.9l-75.2-16.2"/>
	<path class="st2" d="M1387.7,447.1c0.6-2.7-1.1-5.4-3.8-5.9l-70.3-15.2c-2.7-0.6-5.4,1.1-5.9,3.8l-6.1,28.4
		c-0.6,2.7,1.1,5.4,3.8,5.9l70.3,15.1c2.7,0.6,5.4-1.1,5.9-3.8L1387.7,447.1z"/>
	<path class="st2" d="M1205.5,402.8l58.4,12.6c2.7,0.6,5.4-1.1,5.9-3.8l6.1-28.4c0.6-2.7-1.1-5.4-3.8-5.9l-62.9-13.5"/>
	<path class="st2" d="M1355.9,400.3c0.6-2.7-1.1-5.4-3.8-5.9l-70.3-15.1c-2.7-0.6-5.4,1.1-5.9,3.8l-6.1,28.4
		c-0.6,2.7,1.1,5.4,3.8,5.9l70.3,15.1c2.7,0.6,5.4-1.1,5.9-3.8L1355.9,400.3z"/>
	<path class="st2" d="M1436,417.5c0.6-2.7-1.1-5.4-3.8-5.9l-70.3-15.1c-2.7-0.6-5.4,1.1-5.9,3.8l-6.1,28.4c-0.6,2.7,1.1,5.4,3.8,5.9
		l70.3,15.1c2.7,0.6,5.4-1.1,5.9-3.8L1436,417.5z"/>
	<path class="st2" d="M1236.9,369.6l75.2,16.2c2.7,0.6,5.4-1.1,5.9-3.8l6.1-28.4c0.6-2.7-1.1-5.4-3.8-5.9l-75.2-16.2"/>
	<path class="st2" d="M1404.2,370.7c0.6-2.7-1.1-5.4-3.8-5.9l-70.3-15.1c-2.7-0.6-5.4,1.1-5.9,3.8l-6.1,28.4
		c-0.6,2.7,1.1,5.4,3.8,5.9l70.3,15.1c2.7,0.6,5.4-1.1,5.9-3.8L1404.2,370.7z"/>
	<path class="st2" d="M1293.4,301.8l-7.2,33.3c-0.6,2.7,1.1,5.4,3.8,5.9l75.2,16.2"/>
	<path class="st2" d="M1262.4,335.1l17.9,3.8c2.7,0.6,5.4-1.1,5.9-3.8l7.2-33.3"/>
	<path class="st2" d="M1289.7,318.9l-3.5,16.2c-0.6,2.7,1.1,5.4,3.8,5.9l70.3,15.1c2.7,0.6,5.4-1.1,5.9-3.8l3.5-16.2"/>
	<path class="st2" d="M1365.1,552.5c-0.6,2.7-3.3,4.4-5.9,3.8l-70.3-15.1c-2.7-0.6-4.4-3.3-3.8-5.9l6.1-28.4
		c0.6-2.7,3.3-4.4,5.9-3.8l70.3,15.1c2.7,0.6,4.4,3.3,3.8,5.9L1365.1,552.5z"/>
	<path class="st2" d="M1263,535.7l56.1,12.1c2.7,0.6,4.4,3.3,3.8,5.9l-4.8,22.1"/>
	<path class="st2" d="M1317.1,580.8l5.8-27.1c0.6-2.7,3.3-4.4,5.9-3.8l57,12.3"/>
</g>
<g>
	<g>
		<path class="st2" d="M92.3,267.6l13.6-42c25.7-4.6,48-22.8,56.6-49.3c12.4-38.4-8.5-79.5-46.9-92s-79.5,8.5-92,46.9
			c-8.6,26.6-1.2,54.4,16.9,73.2l-13.6,42L92.3,267.6z"/>
		<path class="st3" d="M143,114.4c9.9,12.5,14.9,28.6,13.4,44.9"/>
		<path class="st3" d="M34.1,177c-5.2-13.3-6.1-28.3-1.3-42.9"/>
		
			<ellipse transform="matrix(0.3084 -0.9513 0.9513 0.3084 -49.3549 261.8184)" class="st7" cx="155.4" cy="164.9" rx="1.6" ry="1.6"/>
		
			<ellipse transform="matrix(0.3084 -0.9513 0.9513 0.3084 -97.0597 121.2879)" class="st7" cx="34.9" cy="127.4" rx="1.6" ry="1.6"/>
		
			<rect x="54.5" y="230.9" transform="matrix(0.3084 -0.9513 0.9513 0.3084 -207.7169 236.0236)" class="st2" width="8" height="59.9"/>
		<line class="st2" x1="38.3" y1="211.1" x2="104.7" y2="232.7"/>
		<line class="st2" x1="35.4" y1="220.1" x2="101.8" y2="241.6"/>
		<line class="st2" x1="32.5" y1="229" x2="98.9" y2="250.6"/>
		<line class="st2" x1="29.7" y1="237.9" x2="95.9" y2="259.5"/>
		<line class="st2" x1="35.8" y1="268.2" x2="72.4" y2="280.2"/>
		<line class="st2" x1="41.5" y1="282.2" x2="59.5" y2="288"/>
		<path class="st2" d="M20.7,162.9c-1.3-10.4-0.5-21.1,3-31.7"/>
		<path class="st2" d="M28.2,187.2c-3.9-7.6-6.5-15.8-7.6-24.4"/>
		<path class="st2" d="M23.6,131.2L23.6,131.2c2.7-8.4,6.8-16,11.9-22.5"/>
	</g>
	<g>
		<line class="st2" x1="80.1" y1="44.5" x2="77.4" y2="23.4"/>
		<line class="st2" x1="33.8" y1="36.8" x2="43.5" y2="55.7"/>
		<line class="st2" x1="43.5" y1="55.7" x2="33.8" y2="36.8"/>
		<line class="st2" x1="-10.1" y1="73" x2="6.7" y2="86"/>
		<line class="st2" x1="127.5" y1="49.1" x2="134.1" y2="28.8"/>
		<line class="st2" x1="77.4" y1="23.4" x2="80.1" y2="44.5"/>
		<line class="st2" x1="6.7" y1="86" x2="-10.1" y2="73"/>
		<line class="st2" x1="161.4" y1="67" x2="174.5" y2="50.2"/>
		<line class="st2" x1="134.1" y1="28.8" x2="127.5" y2="49.1"/>
		<line class="st2" x1="202.9" y1="140.4" x2="224.1" y2="137.8"/>
		<line class="st2" x1="210.7" y1="94.1" x2="191.7" y2="103.8"/>
		<line class="st2" x1="191.7" y1="103.8" x2="210.7" y2="94.1"/>
		<line class="st2" x1="174.5" y1="50.2" x2="161.4" y2="67"/>
		<line class="st2" x1="143.7" y1="251.9" x2="153.3" y2="270.9"/>
		<line class="st2" x1="197.3" y1="234.7" x2="180.5" y2="221.6"/>
		<line class="st2" x1="180.5" y1="221.6" x2="197.3" y2="234.7"/>
		<line class="st2" x1="218.6" y1="194.4" x2="198.4" y2="187.9"/>
		<line class="st2" x1="198.4" y1="187.9" x2="218.6" y2="194.4"/>
		<line class="st2" x1="224.1" y1="137.8" x2="202.9" y2="140.4"/>
		<line class="st2" x1="-23.5" y1="213.7" x2="-4.5" y2="203.9"/>
	</g>
</g>
<g>
	<line class="st2" x1="111.4" y1="350.1" x2="66.8" y2="385.6"/>
	<polyline class="st2" points="-26.4,431.4 16.1,397.4 44.2,432.6 -9.5,475.5 	"/>
	<path class="st2" d="M107.6,344c-31.9,25.6-72.2,13.9-74.1,33.4c-1.9,19.5,2.4,17.4-10.4,27.6l15.3,19.1
		c12.7-10.2,9.6-6.5,29.1-4.1c19.5,2.4,17-39.4,48.9-65L107.6,344z"/>
	
		<ellipse transform="matrix(0.7811 -0.6244 0.6244 0.7811 -230.1407 123.6867)" class="st2" cx="61.3" cy="390.1" rx="7.1" ry="7.1"/>
	<line class="st2" x1="14.9" y1="407.6" x2="-19" y2="434.7"/>
</g>
<g>
	<path class="st2" d="M914.1,86l-2.9-0.9c-21.9-7-34.3-29.2-26.5-48.5c4.3-10.9,13.3-19.7,25.5-21.8c0.7-0.1,1.3-0.2,2-0.2l0,0
		c6.5-0.8,13.1-0.2,19.5,1.5l1.9,0.5l34.3,9.6L928.3,167"/>
	<line class="st2" x1="991.6" y1="32.9" x2="952.2" y2="173.7"/>
	<path class="st2" d="M1043.7,47.4c-21.9,12.1-7.3,37.4-33.2,66.7c60.1,37.7-28.6,123.3,15.1,147"/>
	
		<ellipse transform="matrix(0.2696 -0.963 0.963 0.2696 513.7744 1174.1664)" class="st2" cx="1030.9" cy="248.4" rx="13.5" ry="13.5"/>
</g>
<g>
	<path class="st3" d="M836.9,617.3c7.5,5,21.7,10.1,31.8,14.8"/>
	<g>
		<path class="st2" d="M1139.7,698.2c-24.4,5-60.7-22.5-71.4-21.4c-17.2,0.6-29.8,5.5-28.4-17.5c0.3-7.9-6.8-9.8-12.1-9.7
			c-5.3,0.1-37.1,0.5-41.4-3.2s-73.9-55.5-114.8-68.9c-6.7-1.9-21.6-0.6-23.3,3.4s-4.8,11.6-2.9,17.4l9.8,4
			c7.1-1.3,13.4-3.6,20.3,0.3c6.9,3.8,60.6,30.5,83.7,45.2s53.3,36.1,58.3,38.8c5.1,2.7,24.1,12.6,43.4,18.9s77.3,28.8,81.3,19.7
			S1144.6,704.3,1139.7,698.2z"/>
		<path class="st2" d="M1141.1,726.5c-25.7,22.6-94.8-4.3-135.8-22.2c-41-17.8-135.6-59-147.5-64.2s-21.1-8.7-21.8-15.7
			c-0.8-8.9,9.4-26.1,9.4-26.1"/>
		<path class="st3" d="M943.1,658.6c1.1-2.5-0.1-5.5-2.6-6.6l-56.6-24.6c-2.5-1.1-5.5,0.1-6.6,2.6l-1.2,2.9
			c-1.1,2.5,0.1,5.5,2.6,6.6l56.6,24.6c2.5,1.1,5.5-0.1,6.6-2.6L943.1,658.6z"/>
		<path class="st3" d="M848.2,580.9c5.6-19.1,10.7-26.6,19-39.8c0,0,74.7,36.4,62.6,66.4"/>
		<path class="st3" d="M1139.7,698.2c0,0-25.9-16.1-50-32.9c0,0-39.4-28.2-49.8-0.4"/>
		<path class="st3" d="M918,574.9c39.3,14.3,81.7-0.7,81.7-0.7l77.7,81.8"/>
		<path class="st3" d="M1052.3,629.5c2.4,3.5,21.9,20.6,9.2,18.1c-15.1-3-55.5-52.6-87.3-10"/>
		<path class="st3" d="M1032.8,630.2c-3.5,4.9-16.3,17.3-23.1,19.4"/>
		<path class="st3" d="M867.3,541c4.6-5.7,6.3-9.8,13.2-14.9c7.8-5.8,26.6,0.6,29,16.4s19.4,33.3,61.5,20
			c20.5-9.7,19.7-2.1,28.8,11.6"/>
		<path class="st3" d="M935.8,566.6c-1.5-24.1,19.5-22.9,32.3-26.9s19.7,13.2,26.6,26.1"/>
		<path class="st3" d="M1124.1,734.1c-14.8,8.3-37.6,4.4-51.3,0.8c-13.7-3.5-36.8-11.5-53.8-18.3s-137.9-58.8-143.6-61.1
			s-29-12-32.3-13.6s-7.1-17.5-7.1-17.5"/>
		
			<ellipse transform="matrix(0.3732 -0.9277 0.9277 0.3732 -28.4275 1252.5719)" class="st3" cx="912.8" cy="647.3" rx="6.6" ry="7.7"/>
		
			<ellipse transform="matrix(0.3732 -0.9277 0.9277 0.3732 -33.7995 1222.8131)" class="st3" cx="888.1" cy="636.4" rx="6.6" ry="7.7"/>
		<path class="st3" d="M940.2,651.8c-4-1.6-8.3-0.2-9.6,3.2c-1.4,3.4,0.8,7.4,4.7,9"/>
		<path class="st3" d="M842.4,602.8c7.5,5,102.1,44.6,112.2,49.2"/>
		
			<ellipse transform="matrix(0.3732 -0.9277 0.9277 0.3732 87.6705 1268.7882)" class="st3" cx="982.8" cy="569.5" rx="3.8" ry="3.8"/>
		
			<ellipse transform="matrix(0.3732 -0.9277 0.9277 0.3732 78.7006 1260.3514)" class="st3" cx="972.1" cy="571.9" rx="3.8" ry="3.8"/>
		<path class="st3" d="M935.8,566.6c1.9-19.4,48.5-19.8,36-27.5"/>
	</g>
</g>
<g>
	<path class="st2" d="M396.3,37.2c0.9,5.9,2.2,11.7,3,17.6c0.4,3.4,0.9,6.7,1.2,10.1c0.3,2.3,0,7.4,1.3,9.3
		c2.9,4.1,14.4,0.6,18.5,0.1c-1.9,0.2-6.9,11.3-7.9,13.1c-2.7,4.6-5.1,9.3-7.4,14.1c-4.5,10-7.7,20.4-11.9,30.4
		c-1.3,3.4-2.8,6.7-4.3,10.1c-13.3-17-26.2-34.5-39.9-51c-1.6-1.8-4.9-3.9-5-6.4c4.4-1.1,9.2-1.3,13.8-2c-1.1-13-2.2-27.5-6.2-39.9
		c-10.3,0.1-20.8,2-31.1,2.9c-10.7,0.9-21.6,1.8-32.3,3.2c-3.8,0.6-11.9,0.4-15,2.6c-1.8,1.2-1,2.7-0.7,5c0.3,2.5,0.7,4.9,1,7.4
		c1.3,10,2.8,20,4.3,30c5.9-1,12-1.6,18-1.7c8.6,10.1,16.7,20.8,23.9,31.9c2.1,3.4,4.4,6.7,7,9.5c2.3,2.5,5.1,4.4,7.7,6.7
		c9.5,8.4,16.8,19.5,24.6,29.4c4.5,5.8,8.8,11.2,12.3,17.7c-6.5,0.6-13,1-19.5,1.6c-2.9,0.2-5.9,0.4-8.5,1.7
		c-2.5,1.2,2.3,13.9,3,16.1c2,7.3,2.1,15.2,3.8,22.6c0,0.1,96.4-11.5,105.2-12.6c-1.5,0.2-7.2-38.1-7.6-41.6l-29.5,4l-0.3-0.4
		c0.7-1.8,1.5-3.5,2.1-5.1c8.5-20.4,17-40.8,25.5-61.2c1.2-3,3.1-5.5,4.3-8.5c1.5-4,2.8-8.2,4.1-12.2s2.8-8.2,4.1-12.2
		c0.4-1.2,3-11.5,3.9-11.6c5.6-0.7,11.3-1.2,16.9-2.1c2.5-0.3,2.6,0,3-2.3c0.4-2.2-0.8-5.7-1-8.1c-0.3-2.7-3.1-31.1-2-31.3
		c-8.1,1.1-16.2,2.2-24.3,3.2c-3.8,0.6-7.9,0.6-11.6,1.7c-2.7,0.8-4.6,1.6-7.5,1.7c-3.5,0.1-6.5-0.6-10.1-0.2
		c-2.5,0.2-29.5,3.9-29.3,5.1C396.2,36.1,396.2,36.7,396.3,37.2z"/>
</g>
</svg>
