<?xml version="1.0" encoding="utf-8"?>
<!-- Generator: Adobe Illustrator 22.0.1, SVG Export Plug-In . SVG Version: 6.00 Build 0)  -->
<svg version="1.1" id="Calque_1" xmlns="http://www.w3.org/2000/svg" xmlns:xlink="http://www.w3.org/1999/xlink" x="0px" y="0px"
	 viewBox="0 0 1773 360" style="enable-background:new 0 0 1773 360;" xml:space="preserve">
<style type="text/css">
	.st0{display:none;}
	.st1{display:inline;fill:#3F64FF;}
	.st2{fill:none;stroke:#0000FF;stroke-miterlimit:10;}
	.st3{fill:none;stroke:#0000FF;stroke-linecap:round;stroke-miterlimit:10;}
	.st4{fill:#FFFFFF;}
</style>
<g id="BCKGD" class="st0">
	<rect x="86.3" y="118.2" class="st1" width="1600.5" height="250"/>
</g>
<rect x="361.3" y="223" transform="matrix(0.9337 -0.358 0.358 0.9337 -76.279 206.8793)" class="st2" width="318.6" height="172.9"/>
<polygon class="st2" points="560.9,201.4 450.5,243.8 457.1,194 522.5,168.9 "/>
<rect x="395.4" y="237" transform="matrix(0.9337 -0.358 0.358 0.9337 -60.4639 165.9116)" class="st2" width="44.9" height="18.5"/>
<line class="st2" x1="364.9" y1="316.5" x2="354" y2="288.3"/>
<line class="st2" x1="404.6" y1="420.2" x2="375.4" y2="344.1"/>
<line class="st2" x1="460.1" y1="234.3" x2="466.2" y2="196"/>
<line class="st2" x1="411.9" y1="439" x2="409.1" y2="431.6"/>
<line class="st2" x1="357" y1="327.8" x2="466.6" y2="285.8"/>
<line class="st2" x1="577" y1="243.5" x2="654.4" y2="213.7"/>
<line class="st2" x1="588.1" y1="252.4" x2="658.8" y2="225.3"/>
<ellipse transform="matrix(0.9337 -0.358 0.358 0.9337 -74.3473 242.0371)" class="st2" cx="616.5" cy="321.8" rx="8.9" ry="8.9"/>
<ellipse class="st2" cx="486.3" cy="384.1" rx="4.4" ry="4.4"/>
<line class="st2" x1="480.1" y1="358.2" x2="488.7" y2="380.4"/>
<line class="st2" x1="483.8" y1="387.7" x2="459.9" y2="389.5"/>
<polyline class="st2" points="466.6,347.8 451.2,319.3 435.5,325.4 446.2,353.1 "/>
<ellipse class="st2" cx="461.2" cy="368.1" rx="21.2" ry="21.2"/>
<line class="st2" x1="361.5" y1="339.3" x2="464.4" y2="299.9"/>
<line class="st2" x1="396.8" y1="431.6" x2="542.7" y2="375.7"/>
<line class="st2" x1="579.8" y1="361.4" x2="694.3" y2="317.5"/>
<ellipse transform="matrix(0.7071 -0.7071 0.7071 0.7071 -57.2936 468.2599)" class="st2" cx="536.6" cy="303.3" rx="72.4" ry="72.4"/>
<ellipse class="st2" cx="536.6" cy="303.3" rx="59.2" ry="59.2"/>
<path class="st2" d="M585.1,306.1c0.4-6.7-0.6-13.5-3.1-20.2"/>
<path class="st2" d="M554,348.7c7.7-3,14.2-7.7,19.3-13.5c3.4-3.9,6.1-8.3,8-13.1"/>
<path class="st2" d="M519.3,258c-3,1.2-5.8,2.5-8.3,4.2c-19.3,12-28,36.5-19.6,58.6c5.8,15.1,18.4,25.7,32.9,29.5"/>
<rect x="353.9" y="261.3" transform="matrix(0.9337 -0.358 0.358 0.9337 -70.8185 151.4958)" class="st2" width="39.7" height="11.4"/>
<rect x="356.4" y="257.3" transform="matrix(0.9337 -0.358 0.358 0.9337 -68.3136 149.9933)" class="st2" width="29.1" height="4.4"/>
<rect x="364" y="254.9" transform="matrix(0.9337 -0.358 0.358 0.9337 -67.2323 149.3325)" class="st2" width="11.4" height="2.7"/>
<line class="st2" x1="1569.5" y1="212.4" x2="1562.6" y2="203.3"/>
<ellipse transform="matrix(0.7995 -0.6007 0.6007 0.7995 205.2477 989.9564)" class="st2" cx="1585.4" cy="187.5" rx="3.6" ry="3.6"/>
<path class="st2" d="M1566.9,220.8l-14.6-19.5c-2-2.5-1.3-6,1.6-7.6l9.1-5.2c2.8-1.6,7-4.7,9.3-6.9l8.4-8c2.3-2.3,5.8-2,7.8,0.7
	l14.6,19.5"/>
<rect x="1613.9" y="200.5" transform="matrix(0.7995 -0.6007 0.6007 0.7995 138.1329 1073.5952)" class="st2" width="126.5" height="258.7"/>
<line class="st2" x1="1700.1" y1="451.1" x2="1566.5" y2="273.3"/>
<line class="st2" x1="1706.2" y1="276.9" x2="1677.5" y2="238.7"/>
<line class="st2" x1="1670.4" y1="229.2" x2="1674" y2="233.9"/>
<line class="st2" x1="1560.7" y1="265.6" x2="1564.3" y2="270.4"/>
<line class="st2" x1="1559.1" y1="198.7" x2="1560.6" y2="200.5"/>
<path class="st2" d="M1645.9,191.4c-6.9-9.2-24.1-10.7-43.8,4.2c-19.5,14.6-14.6,11-33.3,25c-19.1,14.4-24.6,29.7-16.2,40.9"/>
<line class="st2" x1="1606.6" y1="174.5" x2="1631.8" y2="165.6"/>
<line class="st2" x1="1601.9" y1="166" x2="1620.8" y2="147.2"/>
<line class="st2" x1="1593.9" y1="160.3" x2="1603.3" y2="135.2"/>
<line class="st2" x1="1584.4" y1="158.4" x2="1582.3" y2="131.8"/>
<line class="st2" x1="1574.9" y1="160.8" x2="1561.7" y2="137.5"/>
<path class="st2" d="M865.4,6.9c-1.7,6.9-2.8,13.8-4.4,20.5c-1,3.8-2,7.7-3,11.5c-0.6,2.7-3.3,8-2.7,10.8c1.4,5.8,15.6,7,20.2,8.3
	c-2.1-0.6-12.6,9.3-14.5,10.8c-5,3.9-9.7,7.8-14.4,12.2c-9.3,8.9-17.4,18.8-26.6,28c-3.1,3.1-6,6.1-9.1,9.2
	c-7-24.4-13.3-49.3-21.1-73.5c-0.8-2.6-3.7-6.4-2.7-9.2c5.4,0.7,10.7,2.5,15.9,3.9c4.5-14.7,9.8-31,10.8-46.4
	c-11.2-4.4-23.6-6.9-35.2-10.7c-12.2-3.8-24.4-7.7-36.8-10.8c-4.5-1.1-13.1-4.9-17.6-3.8c-2.5,0.5-2.3,2.5-3,5.2
	c-0.8,2.8-1.4,5.6-2.2,8.4c-3,11.5-5.9,23.1-8.6,34.7c7,1.5,13.9,3.5,20.4,6.1c5,15,9,30.1,12.1,45.5c0.9,4.6,1.7,9.3,3.5,13.6
	c1.6,3.7,3.7,7.1,5.5,10.7c6.7,13.4,9.8,28.8,13.9,43.1c2.4,8.3,4.8,16.2,5.7,24.7c-7.3-2.3-14.7-4.7-21.9-7
	c-3.3-1.1-6.7-2.1-10.1-1.9c-3.3,0.2-3.5,16.2-3.9,19c-1,8.8-4.5,17.7-5.9,26.4c0,0.1,110.7,30.1,120.6,32.8c-1.7-0.4,9-44.9,10-49
	l-34.1-8.7l-0.2-0.6c1.6-1.6,3.1-3.2,4.6-4.7c18.3-18.6,36.7-37.1,55-55.7c2.6-2.8,5.8-4.7,8.4-7.5c3.4-3.7,6.6-7.8,9.9-11.5
	c3.3-3.9,6.6-7.6,9.9-11.5c1-1.2,8.4-11.2,9.4-11c6.4,1.8,12.9,3.7,19.3,5.2c3,0.7,2.9,1.1,4.4-1.2s1.8-6.6,2.4-9.3
	c0.8-3.1,10.3-35.5,11.7-35.1c-9.4-2.4-18.7-4.7-28.1-7.1c-4.4-1-8.9-2.8-13.5-3.3c-3.3-0.2-5.7-0.3-8.9-1.5
	c-3.8-1.4-6.9-3.5-10.9-4.7c-2.9-0.8-34.1-8.7-34.3-7.3C865.8,5.5,865.6,6.2,865.4,6.9z"/>
<g>
	<line class="st2" x1="1388.4" y1="-84.8" x2="1455.1" y2="103.3"/>
	
		<rect x="1400.5" y="-99.6" transform="matrix(0.9426 -0.3338 0.3338 0.9426 77.7538 472.3991)" class="st2" width="25.8" height="219.1"/>
	<polyline class="st2" points="1437.9,117.9 1459.7,140.5 1462.2,109.2 	"/>
	<line class="st2" x1="1455.6" y1="105" x2="1456.3" y2="106.9"/>
</g>
<g>
	<line class="st2" x1="1316" y1="-105.2" x2="1407.6" y2="134.3"/>
	<polygon class="st2" points="1387.1,145.2 1413.1,135.9 1318.2,-109.8 1306.2,-105.5 	"/>
	<polyline class="st2" points="1387.1,145.2 1391.5,157.6 1417.5,148.5 1413.1,135.9 	"/>
	<polyline class="st2" points="1391.5,157.6 1401.8,187 1427.9,177.9 1417.5,148.4 	"/>
	<path class="st2" d="M1398.7,178.2c-0.3-1.1-0.3-2.1-0.1-3c0.1-0.5,0.4-0.9,0.9-1.3c0.5-0.4,1.2-0.5,1.7-0.9
		c1.1-0.8,0.9-2.4,1.5-3.6c0.8-1.6,3.1-2.3,4.6-1.5c1.1,0.5,1.7,1.6,2.5,2.5s2,1.7,3.1,1.3c0.9-0.3,1.6-1.2,2.3-2
		c2.8-3.6,7.4-5.5,9.4-0.9"/>
	<line class="st2" x1="1411.5" y1="144.4" x2="1412.2" y2="146.2"/>
	<line class="st2" x1="1410.3" y1="141" x2="1411" y2="142.9"/>
</g>
<g>
	<polygon class="st2" points="1326,132.7 1341.6,127.1 1268.9,-67.8 1259.9,-64.7 	"/>
	<polyline class="st2" points="1325.6,131.7 1328.7,140.5 1344.4,135 1341.3,126.2 	"/>
	<path class="st2" d="M1328.3,140.6c-9.5,4.8-3.5,19.3,1.2,26c6.8,9.7,34.1,32.9,29,20.8c-5.1-12.1,3-23.5,1.3-37.7
		c-0.9-8.5-7-15-15-15"/>
	<path class="st2" d="M1358.6,165c0.4-4.6-0.8-11.7-6.8-10.2c-5.1,1.2-2.1,10.7-5.8,12.6c-4.2,2.1-17.8-10.7-14,2.1"/>
	<line class="st2" x1="1266.7" y1="-64.2" x2="1336.6" y2="124.9"/>
	<line class="st2" x1="1339.6" y1="133.2" x2="1338.9" y2="131.2"/>
</g>
<g>
	<line class="st2" x1="1233" y1="-14.1" x2="1292.3" y2="153.4"/>
	
		<rect x="1246.8" y="-22.8" transform="matrix(0.9426 -0.3338 0.3338 0.9426 48.2233 423.7752)" class="st2" width="20.7" height="188.7"/>
	
		<rect x="1280.4" y="160.2" transform="matrix(0.9426 -0.3338 0.3338 0.9426 18.5731 440.4139)" class="st2" width="20.7" height="11.9"/>
	
		<rect x="1290.8" y="171.5" transform="matrix(0.9426 -0.3338 0.3338 0.9426 15.0256 442.3811)" class="st2" width="7.8" height="11.9"/>
	<path class="st2" d="M1278.4,162.2c-4,1.5-10.1,3.6-14.9-10.2c-7.5-21.2-13.3-50.2-21.9-74.6c-3.4-9.5-10.5-16.6-10.5-16.6"/>
	<line class="st2" x1="1296.4" y1="164.9" x2="1297" y2="166.8"/>
	<line class="st2" x1="1295.2" y1="161.5" x2="1295.8" y2="163.6"/>
</g>
<g>
	
		<rect x="1452.5" y="-104.4" transform="matrix(0.9426 -0.3338 0.3338 0.9426 87.5681 490.4691)" class="st2" width="36.8" height="189.6"/>
	<line class="st2" x1="1517.5" y1="66.8" x2="1508.8" y2="69.9"/>
	<line class="st2" x1="1514.4" y1="58.1" x2="1501.1" y2="62.8"/>
	<line class="st2" x1="1511.3" y1="49.4" x2="1502.7" y2="52.4"/>
	<line class="st2" x1="1508.2" y1="40.8" x2="1499.7" y2="43.9"/>
	<line class="st2" x1="1505.2" y1="32" x2="1491.9" y2="36.7"/>
	<line class="st2" x1="1502.1" y1="23.3" x2="1493.5" y2="26.4"/>
</g>
<g>
	
		<rect x="1179.5" y="58.7" transform="matrix(0.9426 -0.3338 0.3338 0.9426 39.2821 404.9461)" class="st2" width="36.8" height="58.9"/>
	<path class="st2" d="M1192.2,121.8c1.5,4.3,3.5,9.3,5.1,10.7c3.1,2.8,27.4-0.5,29.7-5.2c1.3-2.8-1.1-10.6-3.4-16.5"/>
	<path class="st2" d="M1203.9,54.7c-0.5-1.6-1.2-3.2-1.7-4.7c-0.9-2.3-33.4,7.6-31.9,11.9c0.4,1.3,0.9,2.8,1.5,4"/>
	<line class="st2" x1="1201.8" y1="60.4" x2="1218" y2="106.4"/>
</g>
<path class="st2" d="M1227.1,122.2c-3.1,3.6-21.5,12.3-31.5,7.9"/>
<line class="st2" x1="1460.3" y1="132.6" x2="1454.4" y2="134.6"/>
<g>
	<path class="st2" d="M266.5,211.1l-22.9-48c18.6-25.3,23-59.8,8.5-90.1c-21-43.8-73.5-62.3-117.3-41.4C91,52.7,72.5,105.2,93.5,149
		c14.5,30.3,44.1,48.5,75.4,49.9l22.9,48L266.5,211.1z"/>
	<path class="st3" d="M183.8,35.4c19,2.8,36.7,12.7,49,28.2"/>
	<path class="st3" d="M140.5,180.4c-15.5-7.2-28.8-19.7-36.7-36.3"/>
	<ellipse class="st4" cx="236.4" cy="69.1" rx="1.9" ry="1.9"/>
	<ellipse class="st4" cx="100.2" cy="136.4" rx="1.9" ry="1.9"/>
	
		<rect x="195.2" y="228.5" transform="matrix(0.9021 -0.4315 0.4315 0.9021 -78.0612 122.6549)" class="st2" width="72.2" height="9.7"/>
	<line class="st2" x1="172.6" y1="206.6" x2="248.4" y2="170.4"/>
	<line class="st2" x1="177.5" y1="216.8" x2="253.2" y2="180.6"/>
	<line class="st2" x1="182.4" y1="227" x2="258.1" y2="190.8"/>
	<line class="st2" x1="187.2" y1="237.2" x2="263" y2="201"/>
	<line class="st2" x1="217.7" y1="258.6" x2="259.5" y2="238.6"/>
	<line class="st2" x1="234.3" y1="266" x2="254.8" y2="256.2"/>
	<path class="st2" d="M117.1,179.1c-9.7-7.9-17.9-18.1-23.7-30.1"/>
	<path class="st2" d="M143.9,194.1c-9.7-3.4-18.8-8.4-26.8-15"/>
	<path class="st2" d="M93.5,149L93.5,149c-4.6-9.6-7.3-19.6-8.2-29.6"/>
</g>
<g>
	<path class="st2" d="M15.7,126.1"/>
	<path class="st2" d="M24,58.1"/>
	<path class="st2" d="M30.5,179.1"/>
	<path class="st2" d="M15.7,126.1"/>
	<path class="st2" d="M24,58.1"/>
	<path class="st2" d="M51,10.2"/>
	<path class="st2" d="M51,10.2"/>
	<path class="st2" d="M105-32"/>
	<path class="st2" d="M273.9-11.5"/>
	<path class="st2" d="M316.1,42.5"/>
	<path class="st2" d="M226-38.5"/>
	<path class="st2" d="M273.9-11.5"/>
	<path class="st2" d="M157.9-46.8"/>
	<path class="st2" d="M226-38.5"/>
	<path class="st2" d="M105-32"/>
	<path class="st2" d="M157.9-46.8"/>
	<path class="st2" d="M322.6,163.5"/>
	<path class="st2" d="M316.1,42.5"/>
	<path class="st2" d="M30.5,179.1"/>
	<path class="st2" d="M72.7,233.1"/>
	<path class="st2" d="M72.7,233.1"/>
	<path class="st2" d="M120.6,260.1"/>
	<line class="st2" x1="70.8" y1="26.5" x2="51" y2="10.2"/>
	<line class="st2" x1="24" y1="58.1" x2="48.2" y2="66.6"/>
	<line class="st2" x1="48.2" y1="66.6" x2="24" y2="58.1"/>
	<line class="st2" x1="15.7" y1="126.1" x2="41.2" y2="123.6"/>
	<line class="st2" x1="116.1" y1="-8.9" x2="105" y2="-32"/>
	<line class="st2" x1="51" y1="10.2" x2="70.8" y2="26.5"/>
	<line class="st2" x1="41.2" y1="123.6" x2="15.7" y2="126.1"/>
	<line class="st2" x1="30.5" y1="179.1" x2="53.6" y2="168"/>
	<line class="st2" x1="53.6" y1="168" x2="30.5" y2="179.1"/>
	<line class="st2" x1="72.7" y1="233.1" x2="89" y2="213.3"/>
	<line class="st2" x1="160.4" y1="-21.3" x2="157.9" y2="-46.8"/>
	<line class="st2" x1="105" y1="-32" x2="116.1" y2="-8.9"/>
	<line class="st2" x1="257.6" y1="8.3" x2="273.9" y2="-11.5"/>
	<line class="st2" x1="226" y1="-38.5" x2="217.4" y2="-14.3"/>
	<line class="st2" x1="217.4" y1="-14.3" x2="226" y2="-38.5"/>
	<line class="st2" x1="157.9" y1="-46.8" x2="160.4" y2="-21.3"/>
	<line class="st2" x1="298.4" y1="154.9" x2="322.6" y2="163.5"/>
	<line class="st2" x1="330.9" y1="95.4" x2="305.4" y2="97.9"/>
	<line class="st2" x1="305.4" y1="97.9" x2="330.9" y2="95.4"/>
	<line class="st2" x1="316.1" y1="42.5" x2="293" y2="53.5"/>
	<line class="st2" x1="293" y1="53.5" x2="316.1" y2="42.5"/>
	<line class="st2" x1="273.9" y1="-11.5" x2="257.6" y2="8.3"/>
	<line class="st2" x1="89" y1="213.3" x2="72.7" y2="233.1"/>
	<line class="st2" x1="120.6" y1="260.1" x2="129.2" y2="235.9"/>
	<path class="st2" d="M89,213.3"/>
	<path class="st2" d="M53.6,168"/>
	<path class="st2" d="M129.2,235.9"/>
	<path class="st2" d="M89,213.3"/>
	<path class="st2" d="M53.6,168"/>
	<path class="st2" d="M41.2,123.6"/>
</g>
<path class="st2" d="M1168.8,229.8c35.6-58.4,113.9,4.6,61,54"/>
<path class="st2" d="M1089.7,492.7c1.1,39.2,33.4,69.7,80.1,72.7c71.1,4.6,127.7-64.3,97-141.6c-27.1-68.1-147.1-110-98-194"/>
<path class="st2" d="M1033.3,234.9c-73.5,0-133.1,59.6-133.1,133.1s59.6,133.1,133.1,133.1s133.1-59.6,133.1-133.1
	S1106.8,234.9,1033.3,234.9"/>
<g>
	<path class="st2" d="M1033.3,247.7C966.8,247.7,913,301.6,913,368s53.9,120.3,120.3,120.3s120.3-53.9,120.3-120.3
		S1099.7,247.7,1033.3,247.7z M933.3,329.8c0.8-17.8,15.9-31.6,33.7-30.9s31.6,15.9,30.9,33.7c-0.8,17.8-15.9,31.6-33.7,30.9
		S932.5,347.7,933.3,329.8z M973.3,438.2c-17.4,4.1-34.8-6.6-38.9-24c-4.1-17.4,6.6-34.8,24-38.9s34.8,6.6,38.9,24
		C1001.4,416.6,990.7,434,973.3,438.2z M1017.6,264.4c15.7-8.4,35.3-2.5,43.7,13.3c8.4,15.7,2.5,35.3-13.3,43.7
		c-15.7,8.4-35.3,2.5-43.7-13.3C995.9,292.3,1001.8,272.8,1017.6,264.4z M1055,465.6c-13.4,11.8-33.8,10.6-45.6-2.7
		c-11.8-13.4-10.6-33.8,2.7-45.6c13.4-11.8,33.8-10.6,45.6,2.7C1069.6,433.3,1068.3,453.8,1055,465.6z M1070.6,329.8
		c0.8-17.8,15.9-31.6,33.7-30.9s31.6,15.9,30.9,33.7c-0.8,17.8-15.9,31.6-33.7,30.9S1069.8,347.7,1070.6,329.8z M1110.6,438.2
		c-17.4,4.1-34.8-6.6-38.9-24s6.6-34.8,24-38.9s34.8,6.6,38.9,24S1128,434,1110.6,438.2z"/>
</g>
<circle class="st2" cx="1033.3" cy="368" r="15"/>
</svg>
