<svg xmlns="http://www.w3.org/2000/svg" viewBox="17282.518 5839.831 61.902 36.898"><defs><style>.a{fill:#0031ff;}</style></defs><g transform="translate(17282.518 5736.428)"><g transform="translate(0 103.403)"><path class="a" d="M58.669,104.014a3.238,3.238,0,0,0-3.061,2.2H34.794v-1.77a1.037,1.037,0,0,0-1.036-1.036H28.144a1.037,1.037,0,0,0-1.036,1.036v1.77H6.294a3.233,3.233,0,1,0,0,2.073H27.107v1.771a1.037,1.037,0,0,0,1.036,1.036H29.2l-5.982,10.961a6.881,6.881,0,0,0,.3,6.878,4.481,4.481,0,0,1,.7,2.5v2.331H22.771a1.037,1.037,0,0,0-1.036,1.036v4.469a1.037,1.037,0,0,0,1.036,1.036H39.13a1.037,1.037,0,0,0,1.036-1.036V134.8a1.037,1.037,0,0,0-1.036-1.036H37.682v-2.331a4.481,4.481,0,0,1,.7-2.5,6.881,6.881,0,0,0,.3-6.878L32.7,111.09h1.06a1.037,1.037,0,0,0,1.036-1.036v-1.771H55.608a3.232,3.232,0,1,0,3.061-4.268ZM3.233,108.406a1.16,1.16,0,1,1,1.16-1.16A1.161,1.161,0,0,1,3.233,108.406Zm34.861,27.426v2.4H23.808v-2.4ZM36.86,123.044a4.843,4.843,0,0,1-.18,4.7,6.5,6.5,0,0,0-1.072,3.68v2.331H26.293v-2.331a6.5,6.5,0,0,0-1.072-3.68,4.843,4.843,0,0,1-.18-4.7l4.873-8.928v7.574a3.233,3.233,0,1,0,2.073,0v-7.574Zm-5.909.547a1.16,1.16,0,1,1-1.16,1.16A1.161,1.161,0,0,1,30.951,123.591Zm1.77-14.574H29.18v-3.541h3.541Zm25.948-.611a1.16,1.16,0,1,1,1.16-1.16A1.161,1.161,0,0,1,58.669,108.406Z" transform="translate(0 -103.403)"/></g></g></svg>