<?xml version="1.0" encoding="utf-8"?>
<!-- Generator: Adobe Illustrator 21.0.2, SVG Export Plug-In . SVG Version: 6.00 Build 0)  -->
<svg version="1.1" baseProfile="basic" id="Calque_1"
	 xmlns="http://www.w3.org/2000/svg" xmlns:xlink="http://www.w3.org/1999/xlink" x="0px" y="0px" viewBox="0 0 60 54.2"
	 xml:space="preserve">
<g transform="translate(16874.544 5567.42)" opacity="0.801">
	<path fill="#0031FF" d="M-16819.3-5533.5v-20.4c0-2.5-2-4.5-4.5-4.5h-11.7v-4.5c0-2.5-2-4.5-4.5-4.5h-10.8c-2.5,0-4.5,2-4.5,4.5
		v4.5h-11.7c-2.5,0-4.5,2-4.5,4.5v31.6c0,2.5,2,4.5,4.5,4.5h26.1c5,5.6,13.5,6.1,19.1,1.1
		C-16817.2-5520.9-16816.1-5528-16819.3-5533.5z M-16853.6-5562.9c0-1.5,1.2-2.7,2.7-2.7h10.8c1.5,0,2.7,1.2,2.7,2.7v4.5h-1.8v-4.5
		c0-0.5-0.4-0.9-0.9-0.9h-10.8c-0.5,0-0.9,0.4-0.9,0.9v4.5h-1.8V-5562.9z M-16840.9-5562v3.6h-9v-3.6L-16840.9-5562z
		 M-16869.8-5552.1v-1.8c0-1.5,1.2-2.7,2.7-2.7h43.3c1.5,0,2.7,1.2,2.7,2.7v9.9c0,2.5-2,4.5-4.5,4.5h-0.6c-3.1-1.2-6.5-1.2-9.6,0
		h-4.2v-2.7c0-0.5-0.4-0.9-0.9-0.9h-9c-0.5,0-0.9,0.4-0.9,0.9v2.7h-14.5c-2.5,0-4.5-2-4.5-4.5L-16869.8-5552.1z M-16821.1-5539.5
		v3.6c-0.7-0.8-1.5-1.5-2.4-2C-16822.5-5538.3-16821.7-5538.9-16821.1-5539.5z M-16841.8-5541.2v1.8h-7.2v-1.8H-16841.8z
		 M-16860.8-5537.6v2.7h-2.7v-2.7H-16860.8z M-16867.1-5519.6c-1.5,0-2.7-1.2-2.7-2.7v-17.3c1.2,1.2,2.8,1.9,4.5,1.9v3.6
		c0,0.5,0.4,0.9,0.9,0.9c0,0,0,0,0,0h4.5c0.5,0,0.9-0.4,0.9-0.9l0,0v-3.6h19.9c-5.7,4.2-7.1,12.1-3.3,18.1H-16867.1z
		 M-16819.3-5525.9c-0.5,5.8-5,10.3-10.8,10.8v-1.8h-1.8v1.8c-3.2-0.2-6.1-1.8-8.1-4.2v-0.3h-0.2c-1.4-1.8-2.3-4-2.5-6.3h1.8v-1.8
		h-1.8c0.5-5.8,5-10.3,10.8-10.8v1.8h1.8v-1.8c5.8,0.5,10.3,5,10.8,10.8h-1.8v1.8L-16819.3-5525.9z"/>
	<g transform="translate(39.733 32.509)">
		<path d="M-16869.8-5559.7v-7.8h-1.8v8.1c0,0.2,0.1,0.5,0.3,0.6l5.4,5.4l1.3-1.3L-16869.8-5559.7z"/>
	</g>
	<g transform="translate(39.733 23.479)">
		<rect x="-16871.6" y="-5567.4" fill="#0031FF" width="1.8" height="1.8"/>
	</g>
	<g transform="translate(43.345 23.479)">
		<rect x="-16871.6" y="-5567.4" fill="#0031FF" width="1.8" height="1.8"/>
	</g>
	<g transform="translate(36.121 23.479)">
		<rect x="-16871.6" y="-5567.4" fill="#0031FF" width="1.8" height="1.8"/>
	</g>
</g>
</svg>
