<?xml version="1.0" encoding="utf-8"?>
<!-- Generator: Adobe Illustrator 21.0.2, SVG Export Plug-In . SVG Version: 6.00 Build 0)  -->
<svg version="1.1" baseProfile="basic" id="Calque_1"
	 xmlns="http://www.w3.org/2000/svg" xmlns:xlink="http://www.w3.org/1999/xlink" x="0px" y="0px" viewBox="0 0 63.5 36.6"
	 xml:space="preserve">
<path fill="#0031FF" d="M61.1,36.6H2.5c-1.4,0-2.4-1.1-2.5-2.4v-1.7c0-0.3,0.3-0.6,0.6-0.6H5V2.6C5,1.1,6.2,0,7.6,0H56
	c1.4,0,2.6,1.2,2.6,2.6v29.3h4.4c0.3,0,0.6,0.3,0.6,0.6v1.7C63.5,35.5,62.4,36.6,61.1,36.6z M1.2,33v1.1c0,0.7,0.6,1.2,1.2,1.2h58.6
	c0.7,0,1.2-0.6,1.2-1.2V33H1.2z M55.2,31.8h2.1V2.6c0-0.8-0.6-1.4-1.4-1.4H7.6c-0.8,0-1.4,0.6-1.4,1.4v29.3h2.1v-1.5
	c0-0.3,0.3-0.6,0.6-0.6h8.3c0.3,0,0.6,0.3,0.6,0.6v1.5h27.9v-1.5c0-0.3,0.3-0.6,0.6-0.6h8.3c0.3,0,0.6,0.3,0.6,0.6L55.2,31.8
	L55.2,31.8z M46.9,31.8H54v-0.9h-7.1L46.9,31.8z M9.5,31.8h7.1v-0.9H9.5L9.5,31.8z M54.6,28.2H8.9c-0.3,0-0.6-0.3-0.6-0.6v-24
	C8.3,3.3,8.6,3,8.9,3h45.7c0.3,0,0.6,0.3,0.6,0.6v24C55.2,28,54.9,28.2,54.6,28.2C54.6,28.2,54.6,28.2,54.6,28.2L54.6,28.2z M9.5,27
	H54V4.3H9.5V27z M31.8,23.9c-4.5,0-8.2-3.7-8.2-8.2s3.7-8.2,8.2-8.2s8.2,3.7,8.2,8.2l0,0C40,20.2,36.3,23.9,31.8,23.9z M31.8,8.7
	c-3.9,0-7,3.1-7,7s3.1,7,7,7s7-3.1,7-7l0,0C38.8,11.9,35.6,8.7,31.8,8.7L31.8,8.7z"/>
<path d="M29.9,19.8c-0.6,0-1-0.4-1-1v-6.2c0-0.6,0.4-1,1-1c0.2,0,0.3,0,0.5,0.1l5.3,3.1c0.5,0.3,0.6,0.9,0.4,1.4
	c-0.1,0.2-0.2,0.3-0.4,0.4l-5.3,3.1C30.3,19.7,30.1,19.8,29.9,19.8z"/>
<path d="M30.1,13"/>
</svg>
