<?xml version="1.0" encoding="utf-8"?>
<!-- Generator: Adobe Illustrator 21.0.2, SVG Export Plug-In . SVG Version: 6.00 Build 0)  -->
<svg version="1.1" baseProfile="basic" id="Calque_1"
	 xmlns="http://www.w3.org/2000/svg" xmlns:xlink="http://www.w3.org/1999/xlink" x="0px" y="0px" viewBox="0 0 60 57.2"
	 xml:space="preserve">
<g>
	<g transform="translate(17261.435 4055.409)">
		<g transform="translate(26.911 1505)">
			<g transform="translate(8.577)">
				<path fill="#0031FF" d="M-17249.7-5544.2c0-8.9-7.2-16.2-16.2-16.2s-16.2,7.2-16.2,16.2c0,4.7,2,9.2,5.6,12.3
					c-1.1,1.1-1.2,2.8-0.1,3.9c-1,1.1-1,2.7,0,3.8c-1.1,1.2-1,2.9,0.2,4c0.3,0.3,0.6,0.5,1,0.6v6.8c0,0.3,0.1,0.5,0.3,0.7l0,0
					l8.6,8.6c0.4,0.4,1,0.4,1.3,0c0,0,0,0,0,0l8.6-8.6l0,0c0.2-0.2,0.3-0.4,0.3-0.7v-6.9c1.5-0.5,2.3-2.1,1.8-3.6
					c-0.1-0.4-0.3-0.7-0.6-1c1-1.1,1-2.7,0-3.8c1-1.1,1-2.9-0.1-4C-17251.8-5535-17249.7-5539.5-17249.7-5544.2z M-17265.9-5505.5
					l-1.5-1.5h3L-17265.9-5505.5z M-17262.5-5508.9h-6.8l-3.7-3.7l1.4-0.9l2.3,1.6c0.3,0.2,0.7,0.2,1.1,0l2.3-1.6l2.3,1.6
					c0.3,0.2,0.7,0.2,1.1,0l2.3-1.6l1.4,0.9L-17262.5-5508.9z M-17258.3-5514.5l-1.4-0.9c-0.3-0.2-0.7-0.2-1.1,0l-2.3,1.6l-2.3-1.6
					c-0.3-0.2-0.7-0.2-1.1,0l-2.3,1.6l-2.3-1.6c-0.3-0.2-0.7-0.2-1.1,0l-1.4,0.9v-4.9h15.2V-5514.5z M-17257.3-5521.3h-17.2
					c-0.5,0-1-0.4-1-1c0-0.5,0.4-1,1-1h17.2c0.5,0,1,0.4,1,1S-17256.8-5521.3-17257.3-5521.3
					C-17257.3-5521.3-17257.3-5521.3-17257.3-5521.3z M-17257.3-5525.2h-17.2c-0.5,0-1-0.4-1-1c0-0.5,0.4-1,1-1h17.2
					c0.5,0,1,0.4,1,1S-17256.8-5525.2-17257.3-5525.2C-17257.3-5525.2-17257.3-5525.2-17257.3-5525.2z M-17257.3-5529h-17.2
					c-0.5,0-1-0.4-1-1s0.4-1,1-1h17.2h0c0.5,0,0.9,0.5,0.9,1C-17256.5-5529.4-17256.9-5529-17257.3-5529L-17257.3-5529z
					 M-17268.9-5543.4c0.3,0.3,0.8,0.3,1.2,0c1.1-0.9,1.8-2.3,1.8-3.7c0-0.2,0-0.4-0.1-0.7c0-0.1,0-0.1,0-0.2c0-0.2-0.1-0.3-0.1-0.5
					c0-0.1,0-0.1,0-0.2c-0.1-0.2-0.1-0.4-0.2-0.6c0,0,0-0.1-0.1-0.1c-0.1-0.2-0.2-0.3-0.3-0.5c0,0,0-0.1,0-0.1
					c0.6-0.2,1.2-0.2,1.7,0c0,0,0,0.1,0,0.1c-0.1,0.1-0.2,0.3-0.3,0.5c0,0,0,0.1-0.1,0.1c-0.1,0.2-0.2,0.4-0.2,0.6
					c0,0.1,0,0.1,0,0.2c0,0.2-0.1,0.3-0.1,0.5c0,0.1,0,0.1,0,0.2c0,0.2-0.1,0.4-0.1,0.7c0,1.4,0.7,2.8,1.8,3.7
					c0.3,0.3,0.8,0.3,1.2,0c1.1-0.9,1.8-2.3,1.8-3.7c0-0.2,0-0.4-0.1-0.7c0-0.1,0-0.1,0-0.2c0-0.2-0.1-0.3-0.1-0.5
					c0-0.1,0-0.1,0-0.2c-0.1-0.2-0.1-0.4-0.2-0.6c0,0,0-0.1-0.1-0.1c-0.1-0.2-0.2-0.3-0.3-0.5c0,0,0-0.1-0.1-0.1
					c0.3-0.1,0.6-0.1,0.9-0.1c1.6,0.1,2.9,1.4,2.9,3.1c0,1.4-0.6,2.7-1.7,3.6l-3.7,3.1c-0.2,0.2-0.3,0.4-0.3,0.7v6.7h-3.8v-6.7
					c0-0.3-0.1-0.6-0.3-0.7l-3.7-3.1c-1.1-0.9-1.7-2.2-1.7-3.6c0-1.6,1.2-3,2.9-3.1c0.3,0,0.6,0,0.9,0.1c0,0,0,0.1-0.1,0.1
					c-0.1,0.1-0.2,0.3-0.3,0.5c0,0,0,0.1-0.1,0.1c-0.1,0.2-0.2,0.4-0.2,0.6c0,0.1,0,0.1,0,0.2c0,0.2-0.1,0.3-0.1,0.5
					c0,0.1,0,0.1,0,0.2c0,0.2,0,0.4-0.1,0.7C-17270.7-5545.6-17270-5544.3-17268.9-5543.4z M-17268.8-5547.1c0-0.2,0-0.4,0.1-0.6
					c0,0,0-0.1,0-0.1c0-0.2,0.1-0.4,0.2-0.5l0,0c0.1-0.1,0.1-0.2,0.2-0.3c0.1,0.1,0.1,0.2,0.2,0.3c0,0,0,0,0,0
					c0.1,0.2,0.1,0.3,0.2,0.5c0,0,0,0.1,0,0.1c0.1,0.4,0.1,0.8,0,1.1c0,0,0,0.1,0,0.1c0,0.2-0.1,0.4-0.2,0.5c0,0,0,0,0,0
					c-0.1,0.1-0.1,0.2-0.2,0.3c-0.1-0.1-0.1-0.2-0.2-0.3c0,0,0,0,0,0c-0.1-0.2-0.1-0.3-0.2-0.5c0,0,0-0.1,0-0.1
					C-17268.8-5546.7-17268.8-5546.9-17268.8-5547.1L-17268.8-5547.1z M-17264-5547.1c0-0.2,0-0.4,0.1-0.6c0,0,0-0.1,0-0.1
					c0-0.2,0.1-0.4,0.2-0.5l0,0c0.1-0.1,0.1-0.2,0.2-0.3c0.1,0.1,0.1,0.2,0.2,0.3c0,0,0,0,0,0c0.1,0.2,0.1,0.3,0.2,0.5
					c0,0,0,0.1,0,0.1c0.1,0.4,0.1,0.8,0,1.1c0,0,0,0.1,0,0.1c0,0.2-0.1,0.4-0.2,0.5c0,0,0,0,0,0c-0.1,0.1-0.1,0.2-0.2,0.3
					c-0.1-0.1-0.1-0.2-0.2-0.3c0,0,0,0,0,0c-0.1-0.2-0.1-0.3-0.2-0.5c0,0,0-0.1,0-0.1C-17264-5546.7-17264-5546.9-17264-5547.1
					L-17264-5547.1z M-17257.4-5532.8h-4.7v-6.2l3.3-2.8c1.5-1.3,2.4-3.1,2.4-5.1c0-2.7-2.1-4.9-4.8-5c-0.8,0-1.7,0.2-2.4,0.7
					c-1.5-0.9-3.3-0.9-4.8,0c-0.7-0.4-1.5-0.7-2.4-0.7c-2.7,0.1-4.8,2.3-4.8,5c0,2,0.9,3.8,2.4,5.1l3.3,2.8v6.2h-4.7
					c-6.3-4.7-7.6-13.7-2.9-20c4.7-6.3,13.7-7.6,20-2.9c6.3,4.7,7.6,13.7,2.9,20C-17255.3-5534.6-17256.3-5533.6-17257.4-5532.8
					L-17257.4-5532.8z"/>
			</g>
			<g transform="translate(39.352 0.281)" opacity="0.714">
				
					<rect x="-17282.2" y="-5558.8" transform="matrix(0.7071 -0.7071 0.7071 0.7071 -1131.0823 -13846.333)" width="5.4" height="1.9"/>
			</g>
			<g transform="translate(39.351 26.962)" opacity="0.714">
				<g transform="translate(0 0)">
					
						<rect x="-17280.5" y="-5560.5" transform="matrix(0.7071 -0.7071 0.7071 0.7071 -1131.0824 -13846.333)" width="1.9" height="5.4"/>
				</g>
			</g>
			<g transform="translate(43.839 15.248)" opacity="0.714">
				<g transform="translate(0)">
					<rect x="-17282.1" y="-5560.4" width="5.7" height="1.9"/>
				</g>
			</g>
			<g transform="translate(5.044 0.28)" opacity="0.714">
				
					<rect x="-17280.5" y="-5560.5" transform="matrix(0.7071 -0.7071 0.7071 0.7071 -1131.0824 -13846.333)" width="1.9" height="5.4"/>
			</g>
			<g transform="translate(5.044 26.963)">
				<g transform="translate(0 0)">
					
						<rect x="-17282.2" y="-5558.8" transform="matrix(0.7071 -0.7071 0.7071 0.7071 -1131.0823 -13846.333)" width="5.4" height="1.9"/>
				</g>
			</g>
			<g transform="translate(0 15.248)">
				<rect x="-17282.1" y="-5560.4" width="5.7" height="1.9"/>
			</g>
		</g>
	</g>
</g>
</svg>
