<?xml version="1.0" encoding="utf-8"?>
<!-- Generator: Adobe Illustrator 21.0.2, SVG Export Plug-In . SVG Version: 6.00 Build 0)  -->
<svg version="1.1" baseProfile="basic" id="Calque_1"
	 xmlns="http://www.w3.org/2000/svg" xmlns:xlink="http://www.w3.org/1999/xlink" x="0px" y="0px" viewBox="0 0 60 42.2"
	 xml:space="preserve">
<g transform="translate(17698.198 5535.122)">
	<g transform="translate(19.197 48.945)">
		<g transform="translate(0 0)">
			<path d="M-17688.5-5574.5c-2.5,0-4.6,2.1-4.6,4.6c0,2.6,2.1,4.6,4.6,4.6s4.6-2.1,4.6-4.6l0,0
				C-17683.9-5572.4-17686-5574.5-17688.5-5574.5z M-17688.5-5567c-1.6,0-2.9-1.3-2.9-2.9c0-1.6,1.3-2.9,2.9-2.9
				c1.6,0,2.9,1.3,2.9,2.9C-17685.6-5568.3-17686.9-5567-17688.5-5567z"/>
		</g>
	</g>
	<g transform="translate(40.987 47.538)">
		<g transform="translate(0 0)">
			<path d="M-17690.1-5574.5c-1.7,0-3,1.4-3,3c0,1.7,1.4,3,3,3s3-1.4,3-3C-17687.1-5573.2-17688.4-5574.5-17690.1-5574.5z
				 M-17690.1-5570.2c-0.7,0-1.3-0.6-1.3-1.3c0-0.7,0.6-1.3,1.3-1.3c0.7,0,1.3,0.6,1.3,1.3
				C-17688.8-5570.8-17689.4-5570.2-17690.1-5570.2z"/>
		</g>
	</g>
	<g transform="translate(0 39.394)">
		<g transform="translate(0 0)">
			<path fill="#0031FF" d="M-17646.7-5574.5h-12.4c-1.9,0-3.4,1.5-3.4,3.4v3.9h-27c-2,0-3.6,1.6-3.6,3.6v21.8c0,2,1.6,3.6,3.6,3.6
				h13l-1.1,4.7c0,0,0,0,0,0c0,0,0,0,0,0.1s0,0,0,0c0,0,0,0,0,0.1s0,0,0,0c0,0,0,0,0,0c0,0,0,0.1,0,0.1c0,0,0,0,0,0c0,0,0,0.1,0,0.1
				v0c0,0,0,0.1,0,0.1l0,0c0,0,0,0,0,0.1l0,0c0,0,0,0,0,0.1l0,0c0,0,0,0,0,0.1l0,0l0,0c0,0,0,0,0,0.1l0,0c0,0,0,0,0.1,0.1l0,0
				c0,0,0,0,0.1,0l0,0c0,0,0,0,0.1,0l0,0l0.1,0l0,0l0.1,0l0,0c0,0,0,0,0.1,0h0c0,0,0.1,0,0.1,0h17c0.5,0,0.9-0.3,0.9-0.8
				c0-0.5-0.3-0.9-0.8-0.9c0,0-0.1,0-0.1,0h-5.6l1-4h14.9c1.8,0,3.2-1.5,3.3-3.2v-7.4c1.7-0.2,3-1.7,3-3.4v-19
				C-17643.3-5573-17644.8-5574.5-17646.7-5574.5z M-17658.1-5571.1c0-1,0.8-1.7,1.7-1.7h9.7c1,0,1.7,0.8,1.7,1.7v1h-13.1
				L-17658.1-5571.1z M-17658.1-5568.4h13.1v13.5h-0.4l-4.3-4.7c-0.3-0.3-0.9-0.4-1.2-0.1c0,0,0,0-0.1,0.1l-1.2,1.3l-3-3.3
				c-0.3-0.3-0.9-0.4-1.2-0.1c0,0,0,0-0.1,0.1l-1.7,1.8V-5568.4L-17658.1-5568.4z M-17647.7-5554.9h-1.4l-1.9-2.1l0.7-0.8
				L-17647.7-5554.9z M-17658.1-5557.3L-17658.1-5557.3l2.3-2.5l4.4,4.9h-6.7L-17658.1-5557.3z M-17660.8-5571.1
				c0-0.9,0.6-1.6,1.5-1.7c-0.3,0.5-0.5,1.1-0.5,1.7v19c0,0.6,0.2,1.2,0.5,1.7c-0.8-0.1-1.5-0.9-1.5-1.7V-5571.1z M-17687.7-5548
				l6.8-7l9.1,10h-15.9V-5548z M-17673.4-5549.4l2-2.2l6,6.6h-4.1L-17673.4-5549.4z M-17689-5539.8h-0.4c-1.1,0-1.9-0.9-1.9-1.9
				v-21.8c0-1.1,0.9-1.9,1.9-1.9h0.4c-0.3,0.5-0.4,1-0.4,1.6v22.6C-17689.4-5540.8-17689.3-5540.2-17689-5539.8L-17689-5539.8z
				 M-17667.2-5534h-8.5l1-4h8.5L-17667.2-5534z M-17648-5541.3c0,0.9-0.7,1.6-1.6,1.6h-36.6c-0.9,0-1.6-0.7-1.6-1.6v-2h39.7
				V-5541.3z M-17648-5545.1h-15.1l-7.6-8.4c-0.3-0.3-0.9-0.4-1.2-0.1c0,0,0,0-0.1,0.1l-2.6,2.8l-5.7-6.3c-0.2-0.2-0.4-0.3-0.6-0.3
				c-0.2,0-0.5,0.1-0.6,0.3l-6.3,6.4v-13.5c0-0.9,0.7-1.5,1.5-1.6h23.7v13.4c0,1.9,1.5,3.4,3.4,3.4h11.1V-5545.1L-17648-5545.1z
				 M-17645-5552.1c0,1-0.8,1.7-1.7,1.7h-9.7c-1,0-1.7-0.8-1.7-1.7v-1.1h13.1L-17645-5552.1L-17645-5552.1z"/>
		</g>
	</g>
</g>
</svg>
