<?xml version="1.0" encoding="utf-8"?>
<!-- Generator: Adobe Illustrator 21.0.2, SVG Export Plug-In . SVG Version: 6.00 Build 0)  -->
<svg version="1.1" baseProfile="basic" id="Calque_1"
	 xmlns="http://www.w3.org/2000/svg" xmlns:xlink="http://www.w3.org/1999/xlink" x="0px" y="0px" viewBox="0 0 60 57.2"
	 xml:space="preserve">
<g transform="translate(17689.065 5837.168)">
	<g transform="translate(0 10.816)">
		<path d="M-17686.4-5826.6c-0.5-0.5-1.3-0.5-1.9-0.1c-0.3,0.2-0.5,0.5-0.8,0.8c-0.5,0.5-0.5,1.3,0,1.9c0.2,0.2,0.6,0.4,0.9,0.4
			c0.3,0,0.7-0.1,0.9-0.4c0.2-0.2,0.5-0.5,0.7-0.7C-17685.9-5825.2-17685.9-5826-17686.4-5826.6
			C-17686.4-5826.6-17686.4-5826.6-17686.4-5826.6z"/>
	</g>
	<g transform="translate(14.192 1.712)">
		<path d="M-17684.9-5826c-0.2-0.7-1-1.1-1.7-0.9c-0.7,0.2-1.3,0.4-2,0.7c-0.7,0.3-1,1-0.8,1.7c0,0,0,0,0,0c0.2,0.5,0.7,0.9,1.2,0.9
			c0.2,0,0.3,0,0.5-0.1c0.6-0.2,1.2-0.4,1.9-0.6C-17685.1-5824.6-17684.7-5825.4-17684.9-5826z"/>
	</g>
	<g transform="translate(40.678 1.712)">
		<path d="M-17685.7-5826.2c-0.7-0.2-1.3-0.5-2-0.7c-0.7-0.2-1.4,0.2-1.7,0.9c-0.2,0.7,0.2,1.4,0.9,1.7c0.6,0.2,1.2,0.4,1.9,0.6
			c0.1,0.1,0.3,0.1,0.5,0.1c0.6,0,1-0.3,1.2-0.9C-17684.7-5825.2-17685-5826-17685.7-5826.2z"/>
	</g>
	<g transform="translate(6.198 5.398)">
		<path d="M-17685.2-5826.3c-0.4-0.6-1.2-0.8-1.8-0.5c0,0,0,0,0,0c-0.6,0.4-1.2,0.7-1.8,1.1c-0.6,0.4-0.8,1.2-0.4,1.8
			c0.2,0.4,0.7,0.6,1.1,0.6c0.3,0,0.5-0.1,0.7-0.2c0.5-0.4,1.1-0.7,1.7-1.1C-17685.1-5824.9-17684.9-5825.7-17685.2-5826.3
			C-17685.2-5826.3-17685.2-5826.3-17685.2-5826.3z"/>
	</g>
	<g transform="translate(48.866 5.398)">
		<path d="M-17685.6-5825.7c-0.6-0.4-1.2-0.8-1.8-1.1c-0.6-0.4-1.4-0.1-1.8,0.5c-0.4,0.6-0.2,1.4,0.5,1.8c0.6,0.3,1.1,0.7,1.7,1.1
			c0.2,0.1,0.5,0.2,0.7,0.2c0.7,0,1.3-0.6,1.3-1.3C-17685-5825-17685.3-5825.4-17685.6-5825.7z"/>
	</g>
	<g transform="translate(31.87 -0.04)">
		<g transform="translate(0 0)">
			<path d="M-17685.9-5826.7c-0.7-0.1-1.4-0.2-2.1-0.2c-0.7-0.1-1.4,0.5-1.4,1.2c-0.1,0.7,0.5,1.4,1.2,1.4c0.7,0.1,1.3,0.1,2,0.2
				c0.1,0,0.1,0,0.2,0c0.7,0,1.2-0.5,1.3-1.1C-17684.7-5826-17685.2-5826.6-17685.9-5826.7z"/>
		</g>
	</g>
	<g transform="translate(22.883 -0.04)">
		<g transform="translate(0 0)">
			<path d="M-17684.8-5825.8c-0.1-0.7-0.7-1.3-1.4-1.2c-0.7,0.1-1.4,0.1-2.1,0.2c-0.7,0.1-1.2,0.8-1.1,1.5c0.1,0.7,0.7,1.1,1.3,1.1
				c0.1,0,0.1,0,0.2,0c0.6-0.1,1.3-0.2,2-0.2C-17685.2-5824.4-17684.7-5825-17684.8-5825.8
				C-17684.8-5825.8-17684.8-5825.8-17684.8-5825.8z"/>
		</g>
	</g>
	<g transform="translate(56.042 10.816)">
		<path d="M-17686.4-5825.8c-0.3-0.3-0.5-0.5-0.8-0.8c-0.5-0.5-1.4-0.4-1.9,0.1c-0.5,0.5-0.5,1.3,0.1,1.8c0.2,0.2,0.5,0.5,0.7,0.7
			c0.2,0.2,0.6,0.4,0.9,0.4c0.7,0,1.3-0.6,1.3-1.3C-17686-5825.3-17686.2-5825.6-17686.4-5825.8L-17686.4-5825.8z"/>
	</g>
	<g transform="translate(0 6.622)">
		<path fill="#0031FF" d="M-17630.3-5811.7l-5.3-5.3c-13.3-13.3-34.8-13.3-48.1,0c0,0,0,0,0,0l-5.3,5.3c-0.5,0.5-0.5,1.2,0,1.7
			l5.3,5.3c13.3,13.3,34.8,13.3,48.1,0l5.3-5.3c0.2-0.2,0.3-0.5,0.3-0.8C-17630-5811.2-17630.1-5811.5-17630.3-5811.7z
			 M-17637.3-5806.4c-12.4,12.4-32.4,12.4-44.8,0c0,0,0,0,0,0l-4.5-4.5l4.5-4.5c12.4-12.4,32.4-12.4,44.8,0c0,0,0,0,0,0l4.5,4.5
			L-17637.3-5806.4z"/>
	</g>
	<g transform="translate(17.586 10.611)">
		<path fill="#0031FF" d="M-17677.3-5827c-6.7,0-12.1,5.4-12.1,12.1s5.4,12.1,12.1,12.1s12.1-5.4,12.1-12.1l0,0
			C-17665.2-5821.5-17670.6-5827-17677.3-5827z M-17677.3-5805.1c-5.4,0-9.7-4.4-9.7-9.7c0-5.4,4.4-9.7,9.7-9.7s9.7,4.4,9.7,9.7
			C-17667.6-5809.5-17671.9-5805.1-17677.3-5805.1z"/>
	</g>
	<path d="M-17657.1-5804.7c-1.4,0-2.5-1.1-2.5-2.5c0-0.2,0-0.4,0.1-0.6h-0.2c-2,0-3.6,1.6-3.6,3.6s1.6,3.6,3.6,3.6s3.6-1.6,3.6-3.6
		c0,0,0,0,0,0c0-0.2,0-0.4-0.1-0.6C-17656.5-5804.7-17656.8-5804.7-17657.1-5804.7z"/>
</g>
</svg>
