<?xml version="1.0" encoding="utf-8"?>
<!-- Generator: Adobe Illustrator 21.0.2, SVG Export Plug-In . SVG Version: 6.00 Build 0)  -->
<svg version="1.2" baseProfile="tiny" id="Calque_1"
	 xmlns="http://www.w3.org/2000/svg" xmlns:xlink="http://www.w3.org/1999/xlink" x="0px" y="0px" viewBox="0 0 32 40"
	 xml:space="preserve">
<path id="VIMEO" fill="none" stroke="#0031FF" stroke-miterlimit="10" d="M24.7,8.9c-3.8-0.1-6.3,2-7.6,6.3c0.6-0.3,1.3-0.4,2-0.4
	c1.4,0,2,0.8,1.8,2.3c-0.3,1.5-0.9,2.9-1.8,4.1c-1.1,1.8-2,2.7-2.5,2.7c-0.7,0-1.4-1.4-2-4.1c-0.2-0.8-0.6-2.9-1.1-6.2
	C13,10.5,11.7,9,9.6,9.2c-1.5,0.4-2.9,1.3-4,2.5c-1.3,1.2-2.6,2.4-3.9,3.6l1.3,1.7c0.6-0.5,1.4-1,2.1-1.3c0.9,0,1.8,1.5,2.6,4.4
	c0.7,2.7,1.5,5.4,2.2,8.1c1.1,2.9,2.4,4.4,4,4.4c2.5,0,5.7-2.4,9.4-7.2c3.6-4.6,5.4-8.2,5.5-10.9C28.8,10.8,27.5,9,24.7,8.9z"/>
</svg>
