<?xml version="1.0" encoding="utf-8"?>
<!-- Generator: Adobe Illustrator 21.0.2, SVG Export Plug-In . SVG Version: 6.00 Build 0)  -->
<svg version="1.2" baseProfile="tiny" id="Calque_1"
	 xmlns="http://www.w3.org/2000/svg" xmlns:xlink="http://www.w3.org/1999/xlink" x="0px" y="0px" viewBox="0 0 33 40"
	 xml:space="preserve">
<path id="IG" fill="none" stroke="#0031FF" stroke-miterlimit="10" d="M6.5,7.5l19.8,0c1.8-0.1,3.4,1.4,3.4,3.2c0,0.1,0,0.1,0,0.2
	v19.8c0,1.9-1.4,3.4-3.3,3.4c0,0-0.1,0-0.1,0l-19.8,0c-1.9,0-3.4-1.5-3.4-3.3c0,0,0-0.1,0-0.1l0-19.8c0-1.8,1.4-3.4,3.3-3.4
	C6.4,7.5,6.4,7.5,6.5,7.5z M22.5,10.4c-0.7,0-1.2,0.5-1.2,1.2c0,0,0,0,0,0v2.9c0,0.7,0.5,1.2,1.2,1.2h3c0.7,0,1.2-0.5,1.2-1.2v-2.9
	c0-0.7-0.5-1.2-1.2-1.2H22.5z M24.4,18.7c0.2,0.7,0.4,1.5,0.4,2.3c-0.1,4.5-3.8,8.1-8.3,8c0,0,0,0,0,0c-4.4,0.1-8.2-3.3-8.3-7.8
	c0-0.9,0.1-1.7,0.3-2.5H6V30c0,0.6,0.5,1.1,1.1,1.1c0,0,0,0,0,0h18.6c0.6,0,1.1-0.5,1.1-1.1c0,0,0,0,0,0V18.7H24.4z M16.4,15.6
	c-2.9,0-5.3,2.3-5.4,5.2c0.1,2.9,2.5,5.2,5.4,5.2c2.9,0,5.3-2.3,5.4-5.2C21.7,17.8,19.3,15.5,16.4,15.6L16.4,15.6z"/>
</svg>
