<?xml version="1.0" encoding="utf-8"?>
<!-- Generator: Adobe Illustrator 21.0.2, SVG Export Plug-In . SVG Version: 6.00 Build 0)  -->
<svg version="1.2" baseProfile="tiny" id="Calque_1"
	 xmlns="http://www.w3.org/2000/svg" xmlns:xlink="http://www.w3.org/1999/xlink" x="0px" y="0px" viewBox="0 0 32 40"
	 xml:space="preserve">
<path id="LI" fill="none" stroke="#0031FF" stroke-miterlimit="10" d="M30.3,22.7v10.7h-6.2v-10c0-2.5-0.9-4.2-3.1-4.2
	c-1.4,0-2.7,0.9-3.2,2.3c-0.2,0.5-0.2,1-0.2,1.5v10.4h-6.2c0,0,0.1-16.9,0-18.6h6.2v2.6c1.1-1.6,3.3-3.2,5.6-3.1
	C27.2,14.3,30.3,16.9,30.3,22.7z M4.9,5.8C3.1,5.6,1.6,7,1.4,8.8c0,0.1,0,0.2,0,0.2c0,1.8,1.4,3.2,3.2,3.2c0.1,0,0.2,0,0.2,0h0
	c1.8,0.2,3.3-1.1,3.5-2.9c0-0.1,0-0.2,0-0.3c0-1.7-1.4-3.2-3.1-3.2C5.1,5.8,5,5.8,4.9,5.8z M1.8,33.4H8V14.8H1.8V33.4z"/>
</svg>
